:SAMPLES-PER-SECOND 30
:FRAME-RANGE 1-663
:FULLY-SPECIFIED
:DEGREES
291
root  14.6468 38.4463 100.472 -178.95 -21.9312 -177.47
RightUpLeg  -4.93636 -7.47825 0.702349
RightLeg  13.559 -18.7214 0.561992
RightFoot  -12.1423 -0.0374131 6.44233
RightToes  2.91037e-010 0 -3.6325e-017
Spine  9.43572 1.94759 9.31756
Spine1  3.55048 4.50856 -6.93805
HEad  6.12186 11.3455 -3.67062
LeftShoulder1  1.72444 -1.05142 -31.8156
LeftArm  -0.274656 -9.16168 -35.5628
LeftForeArm  -10.4795 -30.5138 -7.21327
LeftHand  0.472395 -0.604772 -9.12683
RightShoulder  13.8083 21.2904 48.6565
RightArm  -8.4629 12.415 14.2679
RightForeArm  3.18667 8.2195 13.3792
RightHand  0.560339 2.92505 7.59279
LeftUpLeg  -19.9097 14.7247 8.97482
LeftLeg  39.6431 3.55352 3.52014
LeftFoot  -6.41146 0.297547 -6.01637
LeftToes  -4.9116e-011 5.71383e-011 -3.31847e-011
292
root  14.8468 38.5038 99.921 -178.644 -21.5493 -178.584
RightUpLeg  -3.82815 -7.57532 0.3068
RightLeg  12.9205 -18.2413 0.468562
RightFoot  -12.6829 -0.0156002 6.01849
RightToes  2.91037e-010 0 -3.6325e-017
Spine  9.53906 2.34857 9.7304
Spine1  2.63613 5.01196 -7.87264
HEad  7.74111 10.8815 -3.89797
LeftShoulder1  1.71671 -1.07036 -31.4889
LeftArm  -1.0172 -8.71944 -34.7956
LeftForeArm  -10.6432 -31.2249 -7.40714
LeftHand  0.462681 -0.360272 -9.35085
RightShoulder  14.213 22.5705 47.5794
RightArm  -8.30021 14.8577 14.2264
RightForeArm  2.54855 9.55741 12.8581
RightHand  0.594832 3.18635 7.80555
LeftUpLeg  -22.0923 14.0559 5.79206
LeftLeg  40.0739 1.82293 2.01466
LeftFoot  -7.2911 0.310336 -7.53487
LeftToes  -4.9116e-011 5.71383e-011 -3.31847e-011
293
root  15.0577 38.6069 99.3634 -178.199 -21.2138 -179.721
RightUpLeg  -2.42805 -7.432 -0.0454387
RightLeg  11.3194 -18.0869 0.551536
RightFoot  -12.8555 -0.0105632 5.80084
RightToes  2.91037e-010 0 -3.6325e-017
Spine  9.24672 2.92677 9.77134
Spine1  2.35903 5.60909 -8.61106
HEad  8.66908 10.1994 -4.35104
LeftShoulder1  1.70359 -1.07639 -31.1511
LeftArm  -1.26704 -9.04202 -34.5109
LeftForeArm  -10.8131 -32.1097 -7.65145
LeftHand  0.438793 0.0203051 -9.55113
RightShoulder  14.5945 24.1642 45.9574
RightArm  -7.76833 17.251 14.0093
RightForeArm  1.33273 11.4607 11.9987
RightHand  0.637014 3.43317 8.12042
LeftUpLeg  -23.4688 13.5826 2.43702
LeftLeg  36.9205 1.05068 1.20612
LeftFoot  -7.42475 0.355513 -9.08481
LeftToes  -4.9116e-011 5.71383e-011 -3.31847e-011
294
root  15.2616 38.7024 98.8021 -177.882 -21.0658 179.359
RightUpLeg  -0.768022 -7.23327 -0.231228
RightLeg  9.33648 -18.2913 0.827249
RightFoot  -12.8096 -0.0208353 5.15537
RightToes  2.91037e-010 0 -3.6325e-017
Spine  9.22617 3.49714 9.83257
Spine1  1.9787 6.22225 -9.40313
HEad  9.25756 9.23447 -4.67237
LeftShoulder1  1.70557 -1.10779 -30.9396
LeftArm  -1.66152 -10.0602 -34.4797
LeftForeArm  -10.6448 -33.0207 -7.89115
LeftHand  0.455649 0.0526665 -9.98081
RightShoulder  14.9324 25.821 44.2437
RightArm  -8.50947 19.6256 13.3822
RightForeArm  0.267546 13.071 11.0689
RightHand  0.687485 3.66983 8.53367
LeftUpLeg  -23.9496 13.3779 -0.775244
LeftLeg  31.0191 0.318401 0.547117
LeftFoot  -6.55958 0.47331 -10.3753
LeftToes  -4.9116e-011 5.71383e-011 -3.31847e-011
295
root  15.452 38.7713 98.2469 -177.715 -21.2267 178.821
RightUpLeg  0.952332 -6.91754 -0.120335
RightLeg  7.32948 -18.8749 1.26688
RightFoot  -12.8268 -0.0244042 4.82877
RightToes  2.91037e-010 0 -3.6325e-017
Spine  9.24917 3.89773 10.1914
Spine1  1.87786 6.77665 -10.3516
HEad  9.59609 8.14725 -4.79721
LeftShoulder1  1.7153 -1.1449 -30.8535
LeftArm  -1.87246 -11.8178 -34.7763
LeftForeArm  -10.2381 -33.8353 -8.09711
LeftHand  0.459742 0.204785 -10.3884
RightShoulder  15.1396 27.5173 42.2289
RightArm  -11.0834 22.2839 12.4638
RightForeArm  -0.0293128 13.8375 10.4443
RightHand  0.70865 3.6583 8.81516
LeftUpLeg  -23.7402 13.7067 -3.72933
LeftLeg  23.4621 -1.1445 -0.218348
LeftFoot  -4.91946 0.700724 -11.9329
LeftToes  -4.9116e-011 5.71383e-011 -3.31847e-011
296
root  15.6233 38.7671 97.6574 -177.82 -21.6516 178.673
RightUpLeg  2.53757 -6.52003 0.367868
RightLeg  6.07999 -19.8096 1.56087
RightFoot  -13.1598 -0.020739 4.31586
RightToes  2.91037e-010 0 -3.6325e-017
Spine  9.3984 4.2342 10.3843
Spine1  1.76975 7.17809 -10.695
HEad  9.78603 7.18446 -4.85807
LeftShoulder1  1.76517 -1.26218 -30.9944
LeftArm  -1.78634 -13.8595 -35.2603
LeftForeArm  -10.6236 -34.5468 -8.31974
LeftHand  0.45602 0.465218 -10.8921
RightShoulder  15.0872 29.1598 39.7054
RightArm  -15.6956 24.9506 11.4485
RightForeArm  1.06719 13.4745 10.2867
RightHand  0.752962 3.58235 9.46465
LeftUpLeg  -22.8592 15.3629 -6.48629
LeftLeg  15.3242 -3.98289 -0.993072
LeftFoot  -1.97685 1.22319 -14.7244
LeftToes  -4.9116e-011 5.71383e-011 -3.31847e-011
297
root  15.7713 38.7039 97.0144 -178.048 -22.5195 178.801
RightUpLeg  3.9535 -6.16545 1.108
RightLeg  5.47704 -20.5571 1.8789
RightFoot  -13.8129 -0.018934 3.46184
RightToes  2.91037e-010 0 -3.6325e-017
Spine  9.38433 4.29156 10.6991
Spine1  1.80282 7.35939 -11.1702
HEad  9.92622 6.14375 -4.28636
LeftShoulder1  1.79969 -1.36271 -30.9395
LeftArm  -1.22893 -16.3395 -35.8724
LeftForeArm  -11.6178 -34.7877 -8.44124
LeftHand  0.446767 0.844284 -11.6322
RightShoulder  14.974 31.0111 36.9375
RightArm  -21.6556 27.2341 10.4107
RightForeArm  3.10402 12.1268 10.4136
RightHand  0.840221 3.57903 10.5882
LeftUpLeg  -20.626 8.255 -4.6319
LeftLeg  7.30174 2.62639 -3.57092
LeftFoot  0.869718 1.86636 -17.3846
LeftToes  -4.9116e-011 5.71383e-011 -3.31847e-011
298
root  15.9048 38.5724 96.2976 -178.2 -23.0771 179.284
RightUpLeg  4.98392 -5.77208 2.15584
RightLeg  5.49147 -21.493 2.14798
RightFoot  -14.9714 -0.000959659 3.17032
RightToes  2.91037e-010 0 -3.6325e-017
Spine  9.11436 4.50242 11.1717
Spine1  1.75795 7.73858 -11.8664
HEad  10.2777 4.98437 -3.21319
LeftShoulder1  1.8567 -1.56707 -30.5722
LeftArm  -1.19029 -18.3342 -36.62
LeftForeArm  -12.9064 -35.1283 -8.60742
LeftHand  0.446177 1.25447 -12.854
RightShoulder  14.5733 32.4404 34.0973
RightArm  -27.7532 29.4661 9.5575
RightForeArm  5.05911 9.86256 10.6577
RightHand  1.03021 3.63564 12.9332
LeftUpLeg  -19.1709 2.46581 -3.26629
LeftLeg  1.02057 8.35254 -5.53531
LeftFoot  3.16811 2.26246 -17.8019
LeftToes  -4.9116e-011 5.71383e-011 -3.31847e-011
299
root  16.0128 38.3651 95.4931 -178.562 -23.5069 179.893
RightUpLeg  5.89496 -5.45135 3.30746
RightLeg  6.47295 -22.3632 2.1047
RightFoot  -16.8111 0.0425202 3.27358
RightToes  2.91037e-010 0 -3.6325e-017
Spine  8.98553 4.6264 11.5053
Spine1  1.62355 8.03008 -12.5938
HEad  10.5654 4.07722 -2.11133
LeftShoulder1  1.88915 -1.72964 -30.0501
LeftArm  -2.49343 -18.9642 -37.1293
LeftForeArm  -13.7847 -36.6219 -9.10168
LeftHand  0.419813 1.79666 -14.0764
RightShoulder  14.1017 33.9393 31.1605
RightArm  -30.5804 31.2005 8.88305
RightForeArm  5.16895 7.51591 11.0336
RightHand  1.18931 3.47528 15.2276
LeftUpLeg  -18.3497 1.53779 -3.79062
LeftLeg  -1.49689 9.72808 -5.78061
LeftFoot  6.17768 2.43104 -15.9362
LeftToes  -4.9116e-011 5.71383e-011 -3.31847e-011
300
root  16.1021 38.1947 94.6494 -178.871 -23.7181 179.959
RightUpLeg  7.03989 -5.2426 3.94597
RightLeg  7.39536 -23.0388 1.94178
RightFoot  -18.3068 0.0842444 3.42131
RightToes  2.91037e-010 0 -3.6325e-017
Spine  9.28947 4.69952 11.1487
Spine1  1.3437 8.35184 -13.5765
HEad  10.3445 3.15923 -1.00401
LeftShoulder1  1.88762 -1.78427 -29.6428
LeftArm  -4.4927 -18.4094 -37.2185
LeftForeArm  -14.0996 -39.8205 -10.1531
LeftHand  0.329173 2.63537 -14.8255
RightShoulder  13.5721 35.2775 28.404
RightArm  -31.5555 32.6466 8.55008
RightForeArm  6.69339 4.96093 11.2828
RightHand  1.49678 3.81523 18.4349
LeftUpLeg  -18.2333 0.628098 -4.98585
LeftLeg  -0.419261 9.04114 -5.01019
LeftFoot  10.7228 -0.160591 0.487281
LeftToes  -4.9116e-011 5.71383e-011 -3.31847e-011
